# xmcd
#
# Track frame offsets: 
#        150
#        17305
#        35800
#        62832
#        88270
#        106287
#        121915
#        139257
#        161357
#        178397
#
# Disc length: 2633 seconds
#
# Revision: 1
# Processed by: cddbd v1.5.2PL0 Copyright (c) Steve Scherf et al.
# Submitted via: ExactAudioCopy v1.0b3
#
DISCID=860a470a
DTITLE=Big Pete Pearson - The Screamer
DYEAR=2009
DGENRE=Blues
TTITLE0=I Don't Know You
TTITLE1=Come And Get It
TTITLE2=The Screamer
TTITLE3=Blues Bailout
TTITLE4=Honey Bone
TTITLE5=Paycheck
TTITLE6=Trustworthy Woman
TTITLE7=Boink With You
TTITLE8=Pledging My Love
TTITLE9=Millionaire
EXTD=
EXTT0=
EXTT1=
EXTT2=
EXTT3=
EXTT4=
EXTT5=
EXTT6=
EXTT7=
EXTT8=
EXTT9=
PLAYORDER=
